<?xml version="1.0" standalone="no"?><!DOCTYPE svg PUBLIC "-//W3C//DTD SVG 1.1//EN" "http://www.w3.org/Graphics/SVG/1.1/DTD/svg11.dtd"><svg t="1669799788105" class="icon" viewBox="0 0 1170 1024" version="1.1" xmlns="http://www.w3.org/2000/svg" p-id="2968" xmlns:xlink="http://www.w3.org/1999/xlink" width="228.515625" height="200"><path d="M876.408163 950.857143l6.573715 0.589061C900.042449 954.541714 912.979592 969.474612 912.979592 987.428571c0 20.197878-16.373551 36.571429-36.571429 36.571429H291.265306l-6.573714-0.589061C267.63102 1020.315429 254.693878 1005.382531 254.693878 987.428571c0-20.197878 16.373551-36.571429 36.571428-36.571428h585.142857zM1024 0c80.79151 0 146.285714 65.494204 146.285714 146.285714v585.142857c0 80.79151-65.494204 146.285714-146.285714 146.285715H146.285714C65.494204 877.714286 0 812.220082 0 731.428571V146.285714C0 65.494204 65.494204 0 146.285714 0z m0 73.142857H146.285714l-8.528979 0.492408C101.377306 77.860571 73.142857 108.773878 73.142857 146.285714v585.142857l0.492408 8.52898C77.860571 776.33698 108.773878 804.571429 146.285714 804.571429h877.714286l8.52898-0.492409C1068.908408 799.853714 1097.142857 768.940408 1097.142857 731.428571V146.285714l-0.492408-8.528979C1092.425143 101.377306 1061.511837 73.142857 1024 73.142857zM847.15102 219.428571c16.158041 0 29.257143 13.131755 29.257143 29.331592V476.081633C876.408163 617.827265 761.793306 732.734694 620.408163 732.734694H364.408163c-40.395755 0-73.142857-32.830694-73.142857-73.329633V476.081633C291.265306 334.336 405.880163 219.428571 547.265306 219.428571zM803.265306 292.758204H547.265306l-12.022857 0.389225C439.857633 299.355429 364.408163 378.885224 364.408163 476.081633v126.674285c58.232163-64.966531 111.072653-116.469551 158.701715-154.573061 55.95951-44.767347 119.605551-82.954449 190.863673-114.580898 18.459429-8.193306 40.067918 0.130612 48.261225 18.591347 8.193306 18.460735-0.130612 40.067918-18.591347 48.261225-65.645714 29.135673-123.900082 64.08751-174.842776 104.842449-46.023837 36.818286-98.395429 88.211592-156.912326 154.106775l208.519836 0.001306 12.022857-0.389224 11.815184-1.154613C733.972898 646.151837 803.265306 569.227755 803.265306 476.081633V292.758204z" fill="#1890FF" p-id="2969"></path></svg>