<svg t="1620461218808" class="icon" viewBox="0 0 1024 1024" version="1.1" xmlns="http://www.w3.org/2000/svg" p-id="8257" width="128" height="128"><path d="M48.64 79.36L48.63999999 435.2c0 25.6 20.48 43.52 43.52000001 43.52l353.28 0c25.6 0 43.52-20.48 43.52000001-43.52l-1e-8-353.28c0-25.6-20.48-43.52-43.52000001-43.52L92.16 38.4c-23.04-2.56-43.52 17.92-43.52 40.96zM535.03999999 588.8L535.04 944.64c0 25.6 20.48 43.52 43.52000001 43.52l353.27999999 0c25.6 0 43.52-20.48 43.52-43.52L975.36000001 588.8c0-25.6-20.48-43.52-43.52000001-43.52L581.12 545.28c-25.6 0-46.08 20.48-46.08000001 43.52z m-486.4 0L48.64 944.64c0 25.6 20.48 43.52 43.52 43.52l353.27999999 0c25.6 0 43.52-20.48 43.52000001-43.52L488.96000001 588.8c0-25.6-20.48-43.52-43.52000001-43.52L92.16 545.28c-23.04 0-43.52 20.48-43.52000001 43.52z m486.40000001-509.44L535.03999999 435.2c0 25.6 20.48 43.52 43.52000001 43.52l353.28 0c25.6 0 43.52-20.48 43.52000001-43.52l-1e-8-353.28c0-25.6-20.48-43.52-43.52-43.52L581.12000001 38.4c-25.6-2.56-46.08 17.92-46.08000001 40.96z m381.44-20.48000001c23.04 0 40.96 17.92 40.96 40.96000001L957.44 417.28c0 23.04-17.92 40.96-40.96 40.96L599.04 458.24c-23.04 0-40.96-17.92-40.96-40.96l0-320c0-23.04 17.92-40.96 40.96-40.96000001l317.44 0z" fill="#ffffff" p-id="8258"></path></svg>