<svg t="1620461377681" class="icon" viewBox="0 0 1067 1024" version="1.1" xmlns="http://www.w3.org/2000/svg" p-id="10091" width="128" height="128"><path d="M51.237 1023.886v-101.79h579.255A244.79 244.79 0 0 0 744.095 1024z m790.926-1.481a222.191 222.191 0 1 1 0.493 0zM831.338 666.67a16.902 16.902 0 0 0-8.47 14.812v121.92a17.737 17.737 0 0 0 10.217 15.801l130.504 58.72a14.585 14.585 0 0 0 6.799 1.139 17.13 17.13 0 0 0 15.876-10.18 15.762 15.762 0 0 0-9.077-21.459l-120.326-54.2V681.446a16.94 16.94 0 0 0-8.47-14.812 17.168 17.168 0 0 0-17.129 0zM0 868.656V741.57a127.808 127.808 0 0 1 128.301-127.124H358.47V491.424a256.223 256.223 0 1 1 206.05-1.177l-1.786 124.199h125.339a242.018 242.018 0 0 0-80.14 254.21z" p-id="10092" fill="#ffffff"></path></svg>