<svg t="1620461293062" class="icon" viewBox="0 0 1024 1024" version="1.1" xmlns="http://www.w3.org/2000/svg" p-id="9100" width="128" height="128"><path d="M595.589528 733.833961a17.049944 17.049944 0 0 1-17.082943-16.724945l-0.494999-35.105884a16.895944 16.895944 0 0 1 17.083944-16.724944h411.935636c9.283969 0 16.843944 7.439975 16.963944 16.724944v35.122884a16.861944 16.861944 0 0 1-16.963944 16.724945c-6.194979-0.102-143.342525-0.102-411.440638 0z m-0.817997 153.85549a17.049944 17.049944 0 0 1-17.083943-16.724944l0.340998-35.071884a16.895944 16.895944 0 0 1 17.066944-16.725945h411.935636c9.283969 0 16.843944 7.441975 16.963944 16.725945l-0.340999 34.951884a17.049944 17.049944 0 0 1-16.947944 16.844944H594.771531z m0.339999 136.310549a17.049944 17.049944 0 0 1-17.099944-16.724945V972.68017a16.895944 16.895944 0 0 1 17.083944-16.725945h411.935636c9.283969 0 16.843944 7.440975 16.963944 16.725945v34.473886c-0.12 9.283969-7.679975 16.725945-16.963944 16.844944h-411.918636z m-91.389698-297.914014c-119.979603 0-217.667279-96.084682-217.667279-214.202291S383.62423 297.682405 503.719832 297.682405c119.977603 0 217.667279 96.084682 217.66728 214.20229 0 25.002917-4.334986 49.782835-12.987957 73.181758H624.689432a136.959547 136.959547 0 0 0 21.299929-73.181758c0-77.021745-63.879789-139.792537-142.267529-139.792537-78.249741 0-142.129529 62.770792-142.129529 139.792537 0 77.140745 63.759789 139.911537 142.129529 139.911537v74.290754z m8.275973 246.714183v34.474886c-0.119 9.795968-7.320976 16.605945-17.219943 16.605945h-85.281718c-33.791888 0.374999-49.441836-34.474886-51.30183-68.164774l-17.407942-68.265774c-31.043897-12.987957-60.4158-28.022907-87.55171-47.956841l-71.047765 28.619905c-30.2079 15.359949-67.105778 4.709984-84.444721-24.404919L8.586472 692.311098a62.104794 62.104794 0 0 1 20.683931-84.205721l60.927798-46.421846a371.316771 371.316771 0 0 1 0-99.429671L29.391403 415.816013a62.002795 62.002795 0 0 1-20.803931-83.830722L97.621177 180.314793a64.340787 64.340787 0 0 1 84.309721-24.524919l71.200764 28.603906a409.648644 409.648644 0 0 1 87.53471-49.527836l10.409966-75.023752A63.043791 63.043791 0 0 1 414.685127 0.00639h177.919411c34.183887 0 62.035795 26.129913 63.657789 59.681802l10.392966 75.160752a419.018613 419.018613 0 0 1 87.65371 49.527836l71.201764-28.466906a64.528786 64.528786 0 0 1 84.309721 24.387919l88.779706 151.550498a62.087794 62.087794 0 0 1-20.564932 84.206722 1143.033216 1143.033216 0 0 1-56.541813 45.05585c0 21.964927 0.409999 61.780795 1.211996 119.499605H836.108732l-0.955997-149.844504 92.875693-70.689766-79.359738-135.456552-107.484644 45.44785-17.578942-14.744951a338.122881 338.122881 0 0 0-104.259654-58.930805l-21.417929-7.679975L582.089573 74.313144H425.215092L409.360145 188.712765l-21.418929 7.679975a343.054864 343.054864 0 0 0-104.379655 59.049804l-17.457942 14.506952-108.339641-43.587855-78.48874 133.459558 92.859692 70.707766-4.095986 22.168926a325.800921 325.800921 0 0 0-5.682981 59.049805c0.12 19.831934 1.979993 39.765868 5.562981 59.204804l3.976987 22.151926-92.739693 70.706766 79.615736 135.457552 97.688677-47.803842 153.019493 84.906719 17.184944 119.345605c43.946855-0.085 66.662779-0.085 68.112774 0 2.184993 0.187999 17.219943 8.482972 17.219943 17.083943z" fill="#ffffff" p-id="9101"></path></svg>