<?xml version="1.0" standalone="no"?><!DOCTYPE svg PUBLIC "-//W3C//DTD SVG 1.1//EN" "http://www.w3.org/Graphics/SVG/1.1/DTD/svg11.dtd"><svg t="1650942046110" class="icon" viewBox="0 0 1024 1024" version="1.1" xmlns="http://www.w3.org/2000/svg" p-id="656" xmlns:xlink="http://www.w3.org/1999/xlink" width="200" height="200"><defs><style type="text/css">@font-face { font-family: feedback-iconfont; src: url("//at.alicdn.com/t/font_1031158_u69w8yhxdu.woff2?t=1630033759944") format("woff2"), url("//at.alicdn.com/t/font_1031158_u69w8yhxdu.woff?t=1630033759944") format("woff"), url("//at.alicdn.com/t/font_1031158_u69w8yhxdu.ttf?t=1630033759944") format("truetype"); }
</style></defs><path d="M354.133333 277.333333l133.973334 76.8v151.466667a30.933333 30.933333 0 0 0 30.933333 30.72 30.72 30.72 0 0 0 31.36-30.72v-152.106667L684.373333 277.333333a30.933333 30.933333 0 0 0 14.293334-18.773333 30.72 30.72 0 0 0-2.986667-23.893333 31.146667 31.146667 0 0 0-42.666667-11.093334l-134.4 77.013334L384 223.573333a30.933333 30.933333 0 0 0-42.666667 11.093334 30.72 30.72 0 0 0-3.2 23.253333 31.786667 31.786667 0 0 0 16 19.413333z" fill="#94949b" p-id="657"></path><path d="M77.866667 613.333333a32.64 32.64 0 0 0 3.413333 2.346667l423.253333 234.666667a27.093333 27.093333 0 0 0 3.84 1.28L512 853.333333a47.573333 47.573333 0 0 0 9.6 1.706667h1.066667a32.853333 32.853333 0 0 0 15.36-3.84L960 616.533333a19.413333 19.413333 0 0 0 3.413333-2.346666l1.493334-1.066667a32 32 0 0 0 13.44-25.173333 33.493333 33.493333 0 0 0-16.426667-29.866667l-5.333333-2.133333-162.56-102.186667V188.8a30.933333 30.933333 0 0 0-15.146667-26.453333L534.4 21.333333a30.08 30.08 0 0 0-30.506667 0L259.413333 162.346667a30.933333 30.933333 0 0 0-15.573333 26.453333v267.946667L85.333333 555.946667a36.906667 36.906667 0 0 0-5.12 2.133333 33.28 33.28 0 0 0-16.213333 29.866667 32.853333 32.853333 0 0 0 13.866667 25.386666zM305.28 206.506667l213.333333-122.666667 213.333334 122.666667v244.906666l-213.333334 122.453334-210.986666-120.96a19.84 19.84 0 0 0-2.773334-3.2z m-21.333333 303.36l219.733333 125.866666a30.72 30.72 0 0 0 30.506667 0l222.293333-128 122.88 77.226667-357.76 199.466667-358.186667-198.826667z" fill="#94949b" p-id="658"></path><path d="M962.346667 723.2a33.493333 33.493333 0 0 0-33.706667 0L521.6 949.546667 114.773333 723.626667A33.28 33.28 0 0 0 64 753.066667a33.066667 33.066667 0 0 0 17.92 28.373333l423.253333 234.666667 3.84 1.493333h2.133334a30.72 30.72 0 0 0 9.813333 1.706667h1.066667a33.493333 33.493333 0 0 0 15.36-3.84L960 781.653333a33.066667 33.066667 0 0 0 18.346667-28.586666 33.493333 33.493333 0 0 0-16-29.866667z" fill="#94949b" p-id="659"></path></svg>