<svg t="1620461598892" class="icon" viewBox="0 0 1113 1024" version="1.1" xmlns="http://www.w3.org/2000/svg" p-id="15642" width="128" height="128"><path d="M556.950458 411.286492c-114.926285 0-208.227387-91.941028-208.227387-205.371231 0-113.566211 93.301102-205.371231 208.227387-205.371231s208.227387 91.941028 208.227388 205.371231-93.301102 205.371231-208.227388 205.371231z m0-369.124186c-91.941028 0-166.473104 73.172002-166.473104 163.616948 0 90.580954 74.532076 163.616948 166.473104 163.616947 91.941028 0 166.473104-73.172002 166.473104-163.616947S648.891486 42.162306 556.950458 42.162306z m0 0M206.731306 1004.550936c-73.852039 0-141.991765-38.354097-178.985789-100.917519C0.54403 856.982866-7.072387 803.259928 6.800372 751.033072c13.872759-52.906893 48.690663-96.837296 96.837296-123.902776 31.281711-17.408952 66.915659-27.201488 103.093638-27.201487 73.852039 0 141.991765 38.354097 178.985788 100.917519 27.201488 46.650551 34.817904 100.237482 20.945145 152.464337-13.872759 52.906893-48.690663 96.837296-96.837295 123.902776-31.417718 18.361004-67.595697 27.337495-103.093638 27.337495z m-0.816045-362.051799c-28.561562 0-57.123124 7.616417-82.148493 21.625182-38.354097 21.625183-65.419578 56.443087-76.572187 98.19737-11.15261 41.074246-4.896268 83.508567 16.728915 120.50259 29.241599 49.506707 84.324612 80.108381 142.80781 80.108381 28.561562 0 57.123124-7.616417 82.148492-21.625182 38.354097-21.625183 65.419578-56.443087 76.572188-98.19737 11.15261-41.074246 4.896268-83.508567-16.728915-119.822553-28.561562-49.506707-83.508567-80.788418-142.80781-80.788418z m0 0M907.169611 1004.550936c-36.177978 0-71.67592-9.112498-103.093638-27.201487-48.010626-27.201488-82.82853-70.995883-96.837296-123.902776-13.872759-51.546819-6.256342-105.813787 20.945146-152.464338 36.858016-62.019392 105.13375-100.917519 178.985788-100.917519 36.177978 0 71.67592 9.112498 103.093638 27.201488 48.010626 27.201488 82.82853 70.995883 96.837296 123.902776 13.872759 51.546819 6.256342 105.813787-20.945146 152.464337-36.858016 62.563421-105.13375 100.917519-178.985788 100.917519z m0.680037-362.051799c-59.163235 0-113.566211 30.601674-142.80781 80.108381-21.625183 36.858016-27.881525 79.428344-16.728915 119.822552 11.15261 41.754283 38.354097 76.572188 76.572188 98.197371 25.025369 13.872759 53.586931 21.625183 82.148492 21.625182 59.163235 0 113.566211-30.601674 142.80781-80.108381 21.625183-36.858016 27.881525-79.428344 16.728915-119.822553-11.15261-41.754283-38.354097-76.572188-76.572187-98.19737-25.025369-14.008766-53.586931-21.625183-82.148493-21.625182z m0 0" p-id="15643" fill="#ffffff"></path><path d="M960.076504 590.272281c-10.472573 0-19.449064-8.296454-20.945145-18.769027-9.792536-108.669943-66.915659-208.227387-158.040643-272.966928-9.792536-6.936379-11.832647-19.449064-4.896268-29.241599 6.936379-9.792536 19.449064-11.832647 29.241599-4.896268 100.917519 71.67592 164.977022 181.705937 175.449595 302.888565 0.680037 11.832647-7.616417 21.625183-18.769026 22.985257h-2.040112z m0 0M556.950458 1022.639926c-60.52331 0-119.142516-12.512684-174.769557-36.858016-10.472573-4.896268-15.36884-16.728915-10.472573-27.881525 4.896268-10.472573 16.728915-15.36884 27.881525-10.472573 50.186745 22.30522 103.093638 33.45783 157.360605 33.45783 55.76305 0 110.710054-11.832647 162.256874-35.497941 10.472573-4.896268 22.985257 0 27.881524 10.472573 4.896268 10.472573 0 22.985257-10.472572 27.881524-57.123124 25.705406-117.646434 38.898127-179.665826 38.898128z m0 0M154.504449 584.695976H152.32833c-11.15261-1.360074-19.449064-11.15261-18.769026-22.985257 11.832647-119.142516 75.89215-227.676451 174.769558-297.992297 9.792536-6.936379 22.30522-4.216231 29.241599 4.896268 6.936379 9.792536 4.216231 22.30522-4.896268 29.241599-89.084872 63.923496-146.888033 161.440829-158.040643 267.934653-0.680037 11.15261-9.792536 18.905034-20.129101 18.905034z m0 0M1019.375747 823.525037H795.779519c-11.832647 0-20.945145-9.112498-20.945145-20.945146s9.112498-20.945145 20.945145-20.945145h223.596228c11.832647 0 20.945145 9.112498 20.945146 20.945145s-9.112498 20.945145-20.945146 20.945146z m0 0" p-id="15644" fill="#ffffff"></path><path d="M907.169611 933.555054c-11.832647 0-20.945145-9.112498-20.945146-20.945146V692.549874c0-11.832647 9.112498-20.945145 20.945146-20.945146s20.945145 9.112498 20.945145 20.945146V912.609908c0 11.832647-9.112498 20.945145-20.945145 20.945146z m0 0" p-id="15645" fill="#ffffff"></path></svg>