<?xml version="1.0" standalone="no"?><!DOCTYPE svg PUBLIC "-//W3C//DTD SVG 1.1//EN" "http://www.w3.org/Graphics/SVG/1.1/DTD/svg11.dtd"><svg t="1661141456324" class="icon" viewBox="0 0 1024 1024" version="1.1" xmlns="http://www.w3.org/2000/svg" p-id="1702" xmlns:xlink="http://www.w3.org/1999/xlink" width="200" height="200"><defs><style type="text/css">@font-face { font-family: feedback-iconfont; src: url("//at.alicdn.com/t/font_1031158_u69w8yhxdu.woff2?t=1630033759944") format("woff2"), url("//at.alicdn.com/t/font_1031158_u69w8yhxdu.woff?t=1630033759944") format("woff"), url("//at.alicdn.com/t/font_1031158_u69w8yhxdu.ttf?t=1630033759944") format("truetype"); }
</style></defs><path d="M849.459978 494.738855a160.634277 160.634277 0 0 0-202.168798-19.839293 159.9943 159.9943 0 0 0-58.9419 71.677446 142.714916 142.714916 0 0 0-8.319704 28.158997 289.269695 289.269695 0 0 1-255.99088-255.99088 142.714916 142.714916 0 0 0 28.158997-8.319704 159.9943 159.9943 0 0 0 98.556489-147.834733 156.794414 156.794414 0 0 0-12.159567-63.99772A158.714346 158.714346 0 0 0 352.197693 12.196046a156.794414 156.794414 0 0 0-63.99772-12.159567 159.9943 159.9943 0 0 0-147.834734 98.556489 161.274255 161.274255 0 0 0 34.558769 174.713775c22.399202 21.951218 50.558199 37.05468 81.277105 43.51845v326.388373a154.298503 154.298503 0 0 0-56.957971 23.679156 159.9943 159.9943 0 1 0 222.072089 221.944093 159.9943 159.9943 0 0 0 26.879042-88.764838 156.794414 156.794414 0 0 0-12.159567-63.99772 158.714346 158.714346 0 0 0-115.835873-95.356603v-153.594528a353.267415 353.267415 0 0 0 127.99544 110.716056 361.587118 361.587118 0 0 0 133.755235 38.398632 159.9943 159.9943 0 0 0 316.788714-31.358883 160.634277 160.634277 0 0 0-49.278244-110.076078z m-524.781305 216.312294c17.663371 7.487733 32.766833 19.967289 43.51845 35.838723a95.99658 95.99658 0 0 1-133.115258 133.115258 99.196466 99.196466 0 0 1-35.838723-43.51845 95.356603 95.356603 0 0 1-5.119818-55.038039 95.356603 95.356603 0 0 1 75.51731-75.51731 95.356603 95.356603 0 0 1 55.038039 5.119818zM288.199973 256.027359a95.99658 95.99658 0 0 1-88.956831-59.51788 95.356603 95.356603 0 0 1-5.119818-55.038039 95.356603 95.356603 0 0 1 75.51731-75.51731 95.356603 95.356603 0 0 1 55.038039 5.119818A95.99658 95.99658 0 0 1 288.199973 256.027359z m515.821624 419.825044a95.99658 95.99658 0 0 1-156.794414-31.358883 95.356603 95.356603 0 0 1-5.119818-55.038039 95.356603 95.356603 0 0 1 75.51731-75.51731 95.356603 95.356603 0 0 1 55.038039 5.119818 95.932582 95.932582 0 0 1 31.358883 156.794414z" p-id="1703" fill="#8a8a8a"></path></svg>