<?xml version="1.0" standalone="no"?><!DOCTYPE svg PUBLIC "-//W3C//DTD SVG 1.1//EN" "http://www.w3.org/Graphics/SVG/1.1/DTD/svg11.dtd"><svg t="1662538421980" class="icon" viewBox="0 0 1024 1024" version="1.1" xmlns="http://www.w3.org/2000/svg" p-id="30521" xmlns:xlink="http://www.w3.org/1999/xlink" width="200" height="200"><path d="M512 384c-229.8 0-416-57.3-416-128v256c0 70.7 186.2 128 416 128s416-57.3 416-128V256c0 70.7-186.2 128-416 128z" fill="#0F55FA" p-id="30522"></path><path d="M512 704c-229.8 0-416-57.3-416-128v256c0 70.7 186.2 128 416 128s416-57.3 416-128V576c0 70.7-186.2 128-416 128zM512 320c229.8 0 416-57.3 416-128S741.8 64 512 64 96 121.3 96 192s186.2 128 416 128z" fill="#0F55FA" p-id="30523"></path></svg>