<?xml version="1.0" standalone="no"?><!DOCTYPE svg PUBLIC "-//W3C//DTD SVG 1.1//EN" "http://www.w3.org/Graphics/SVG/1.1/DTD/svg11.dtd"><svg t="1662357615163" class="icon" viewBox="0 0 1024 1024" version="1.1" xmlns="http://www.w3.org/2000/svg" p-id="2423" xmlns:xlink="http://www.w3.org/1999/xlink" width="200" height="200"><path d="M819.2 486.4L682.666667 328.533333c0-4.266667 0-8.533333-4.266667-12.8l-34.133333-226.133333c0-12.8-17.066667-21.333333-29.866667-17.066667L396.8 149.333333h-8.533333l-230.4-8.533333c-12.8 0-25.6 8.533333-21.333334 25.6l25.6 226.133333v8.533334L72.533333 597.333333c-4.266667 12.8 4.266667 25.6 17.066667 29.866667l200.533333 25.6c4.266667 0 8.533333 4.266667 12.8 8.533333l153.6 174.933334c8.533333 12.8 25.6 8.533333 34.133334-4.266667l123.733333-204.8c0-4.266667 4.266667-4.266667 8.533333-8.533333l187.733334-102.4c17.066667-4.266667 17.066667-21.333333 8.533333-29.866667z m-234.666667 59.733333c-17.066667 8.533333-29.866667 21.333333-38.4 38.4l-81.066666 128-93.866667-110.933333c-17.066667-21.333333-42.666667-34.133333-68.266667-34.133333L183.466667 554.666667l51.2-123.733334c8.533333-17.066667 8.533333-34.133333 8.533333-51.2l-17.066667-149.333333 157.866667 8.533333c12.8 0 29.866667 0 42.666667-4.266666l145.066666-51.2 25.6 145.066666c0 21.333333 8.533333 38.4 21.333334 55.466667l85.333333 98.133333-119.466667 64z" p-id="2424" fill="#ebe22e"></path><path d="M633.6 690.944l60.373333-60.330667 193.066667 193.109334-60.330667 60.330666z" p-id="2425" fill="#ebe22e"></path></svg>