<?xml version="1.0" standalone="no"?><!DOCTYPE svg PUBLIC "-//W3C//DTD SVG 1.1//EN" "http://www.w3.org/Graphics/SVG/1.1/DTD/svg11.dtd"><svg t="1662357151425" class="icon" viewBox="0 0 1024 1024" version="1.1" xmlns="http://www.w3.org/2000/svg" p-id="2164" xmlns:xlink="http://www.w3.org/1999/xlink" width="200" height="200"><path d="M511.99997 293.668554a30.476189 30.476189 0 0 1-30.476189-30.476189V30.476189a30.476189 30.476189 0 0 1 60.952377 0v232.716176a30.476189 30.476189 0 0 1-30.476188 30.476189zM511.99997 1023.999939a30.476189 30.476189 0 0 1-30.476189-30.476189v-232.716176a30.476189 30.476189 0 0 1 60.952377 0V993.52375a30.476189 30.476189 0 0 1-30.476188 30.476189zM263.192365 542.476158H30.476189a30.476189 30.476189 0 0 1 0-60.952377h232.716176a30.476189 30.476189 0 1 1 0 60.952377zM993.52375 542.476158h-232.716176a30.476189 30.476189 0 0 1 0-60.952377H993.52375a30.476189 30.476189 0 0 1 0 60.952377zM687.90853 366.567597a30.476189 30.476189 0 0 1-21.516189-52.05333l164.571419-164.571419a30.476189 30.476189 0 0 1 43.093331 43.093331l-164.571419 164.571419a30.476189 30.476189 0 0 1-21.577142 8.959999zM171.51999 882.956138a30.476189 30.476189 0 0 1-21.577142-51.992378l164.571419-164.571419a30.476189 30.476189 0 0 1 43.093331 43.093331l-164.571419 164.571419a30.476189 30.476189 0 0 1-21.516189 8.899047zM336.091409 366.567597a30.476189 30.476189 0 0 1-21.577142-8.959999l-164.571419-164.571419a30.476189 30.476189 0 0 1 43.093331-43.093331l164.571419 164.571419a30.476189 30.476189 0 0 1-21.516189 52.05333zM993.52375 1023.999939a30.476189 30.476189 0 0 1-21.577141-8.899047l-481.523781-481.523781a30.476189 30.476189 0 0 1 43.154283-43.154283l481.523781 481.523781A30.476189 30.476189 0 0 1 993.52375 1023.999939z" p-id="2165" fill="#f4ea2a"></path></svg>