<svg t="1631522311646" class="icon" viewBox="0 0 1024 1024" version="1.1" xmlns="http://www.w3.org/2000/svg" p-id="6368" width="128" height="128"><path d="M511.997623 0c-126.091628 0-241.50921 45.605992-330.729021 121.184895l-0.570551 0.480213c-2.434348 2.073-4.849678 4.160263-7.250744 6.276054-0.584814 0.513495-1.179137 1.007972-1.759197 1.526222-0.484968 0.427913-0.950917 0.870089-1.426376 1.302757-2.206128 1.977908-4.388483 3.979589-6.561329 6.000288-0.561041 0.523004-1.126837 1.0365-1.678369 1.559504C62.318362 231.748044 0 364.58643 0 511.997623 0 794.776641 229.218604 1023.995245 511.997623 1023.995245c126.091628 0 241.504455-45.601237 330.729021-121.18014l0.57055-0.484968c2.434348-2.068245 4.849678-4.160263 7.24599-6.276054 0.584814-0.513495 1.183892-1.007972 1.763951-1.521467 0.480213-0.427913 0.946163-0.874844 1.426376-1.302757 2.206128-1.982662 4.388483-3.984343 6.561329-6.000288l1.678369-1.564259c99.703674-93.413356 162.022036-226.251742 162.022036-373.667689C1023.995245 229.223359 794.767132 0 511.997623 0z m113.948414 306.038455H398.044454c-9.066996 0-16.412832 7.226971-16.412832 16.156084v379.615677c0 8.919604 7.345836 16.15133 16.412832 16.151329h227.901583c9.066996 0 16.417586-7.231726 16.417587-16.151329V322.194539c-0.004755-8.924358-7.35059-16.156084-16.417587-16.156084z m-95.662275 392.229594h-36.572278v-36.572278h36.572278v36.572278z m84.39866-63.687683a16.412832 16.412832 0 0 1-16.408077 16.412832H425.7209a16.417586 16.417586 0 0 1-16.412832-16.412832v-261.169424a16.417586 16.417586 0 0 1 16.412832-16.417586h172.553445a16.412832 16.412832 0 0 1 16.408077 16.417586v261.169424z m341.265185 6.78004c20.777542-100.502445 11.506099-202.098444-21.352847-293.429292 30.938093 56.227737 48.430216 117.27187 50.855055 179.304958 0.180674 5.253818 0.275766 10.507636 0.285275 15.770962 0 3.204591-0.047546 6.409182-0.133129 9.613774-2.053981 74.647004-25.974305 145.029145-68.60868 205.003496 17.135529-35.787771 30.358033-74.69455 38.954326-116.263898z m-65.946112-387.97424a536.631134 536.631134 0 0 0-11.306406-18.124483 527.150489 527.150489 0 0 1 21.386129 29.792238c-3.285419-3.917779-6.642157-7.807031-10.079723-11.667755zM102.223605 276.669375c-14.8248 32.920755-26.402218 68.356687-34.175966 105.979728-21.547785 104.206267-10.792911 209.591672 25.070933 303.485242-28.594082-49.899383-46.504608-103.778355-52.566706-158.888764v-0.004755a486.983744 486.983744 0 0 1-2.282201-44.464891c0.014264-2.653059 0.047546-5.306118 0.123619-7.959177 1.973153-71.818026 24.181826-139.689745 63.830321-198.147383z m38.198346 504.461604c1.592786 2.538949 3.218855 5.05888 4.854433 7.574056a532.180841 532.180841 0 0 1-9.376045-12.53309c1.49294 1.659351 3.000144 3.309192 4.516857 4.954279zM339.47746 942.092742c-46.200315-23.820477-88.468587-55.932953-125.09792-94.963351 155.522517 114.552247 365.941487 139.618426 534.624699 67.258377-71.875081 37.004945-153.107187 56.807797-237.016125 56.807797-59.660549 0-117.961285-10.017913-172.510654-29.102823z m-184.050035-171.507436a519.048674 519.048674 0 0 1-12.186004-20.444721c-62.247043-110.087691-82.786856-239.66443-57.425893-362.328001 14.216213-68.765581 42.078089-131.52612 81.094223-184.573039a417.138872 417.138872 0 0 1 18.395494-15.40486c91.297566-72.079528 212.273259-106.431414 338.279304-96.085434 126.0108 10.355489 244.556899 64.386607 331.489755 151.100752a489.798459 489.798459 0 0 1 19.902698 21.062817c1.94938 3.285419 3.874988 6.599366 5.762559 9.937086 62.247043 110.087691 82.791611 239.659676 57.430648 362.323246-15.119584 73.135046-45.667801 139.475788-88.663525 194.557671a418.574757 418.574757 0 0 1-10.826193 8.853039c-91.297566 72.079528-212.278013 106.431414-338.284059 96.085434-126.006045-10.355489-244.556899-64.386607-331.489755-151.100751a491.781122 491.781122 0 0 1-13.479252-13.983239zM684.508276 81.902503c50.427142 25.993323 96.166262 61.871431 135.011232 105.837091C651.188136 57.616076 414.010354 35.440686 236.379011 131.721058c80.732875-51.178367 176.300059-78.926132 275.613857-78.926132 59.660549 0 117.961285 10.017913 172.515408 29.107577zM20.734751 526.21859l0.071319 0.594324c9.395062 98.167943 47.474544 196.140947 114.518964 280.211541-70.843335-78.83104-111.195509-177.289013-114.585529-280.805865z m982.525744-28.242242c-9.261934-98.4342-47.369943-196.706743-114.595039-281.005558 70.890881 78.883341 111.252564 177.417387 114.595039 281.005558z" fill="#ffffff" p-id="6369"></path></svg>