<svg t="1620463386778" class="icon" viewBox="0 0 1024 1024" version="1.1" xmlns="http://www.w3.org/2000/svg" p-id="15190" width="128" height="128"><path d="M207.5 916.46m20 0l570 0q20 0 20 20l0 0q0 20-20 20l-570 0q-20 0-20-20l0 0q0-20 20-20Z" p-id="15191" fill="#ffffff"></path><path d="M349.5 782.14m20 0l286 0q20 0 20 20l0 0q0 20-20 20l-286 0q-20 0-20-20l0 0q0-20 20-20Z" p-id="15192" fill="#ffffff"></path><path d="M860 104a60.3 60.3 0 0 1 60 60v430a60.3 60.3 0 0 1-60 60H164a60.3 60.3 0 0 1-60-60V164a60.3 60.3 0 0 1 60-60h696m0-40H164c-55 0-100 45-100 100v430c0 55 45 100 100 100h696c55 0 100-45 100-100V164c0-55-45-100-100-100z" p-id="15193" fill="#ffffff"></path><path d="M245.09 517.57A20 20 0 0 1 233.84 481l205.71-139.69a20 20 0 0 1 23 0.35l119.84 86.84 183.37-184.18a20 20 0 1 1 28.34 28.22L598.67 468.83a20 20 0 0 1-25.9 2.09l-122.35-88.64-194.11 131.84a20 20 0 0 1-11.22 3.45z" p-id="15194" fill="#ffffff"></path></svg>