<svg t="1620463129553" class="icon" viewBox="0 0 1024 1024" version="1.1" xmlns="http://www.w3.org/2000/svg" p-id="8143" width="128" height="128"><path d="M907.0592 107.91936a30.72 30.72 0 0 1 30.72 30.72v593.92a30.72 30.72 0 0 1-30.72 30.72h-358.4v81.92h235.52a10.24 10.24 0 0 1 10.24 10.24v51.2a10.24 10.24 0 0 1-10.24 10.24h-542.72a10.24 10.24 0 0 1-10.24-10.24v-51.2a10.24 10.24 0 0 1 10.24-10.24h235.52v-81.92h-358.4a30.72 30.72 0 0 1-30.72-30.72v-593.92a30.72 30.72 0 0 1 30.72-30.72z m-40.448 71.68h-706.56c-0.512 0-0.512 512 0 512h706.56v-512z m-538.112 283.136a10.24 10.24 0 0 1 10.24 10.24v126.464a10.24 10.24 0 0 1-10.24 10.24h-51.2a10.24 10.24 0 0 1-10.24-10.24v-126.464a10.24 10.24 0 0 1 10.24-10.24h51.2z m140.288-59.392a10.24 10.24 0 0 1 10.24 10.24v185.856a10.24 10.24 0 0 1-10.24 10.24h-51.2a10.24 10.24 0 0 1-10.24-10.24v-185.856a10.24 10.24 0 0 1 10.24-10.24h51.2z m139.776-155.648a10.24 10.24 0 0 1 10.24 10.24v341.504a10.24 10.24 0 0 1-10.24 10.24h-51.2a10.24 10.24 0 0 1-10.24-10.24v-341.504a10.24 10.24 0 0 1 10.24-10.24h51.2z m140.288 76.8a10.24 10.24 0 0 1 10.24 10.24v264.704a10.24 10.24 0 0 1-10.24 10.24h-51.2a10.24 10.24 0 0 1-10.24-10.24v-264.704a10.24 10.24 0 0 1 10.24-10.24h51.2z" fill="#ffffff" p-id="8144"></path></svg>