<svg t="1648559689070" class="icon" viewBox="0 0 1024 1024" version="1.1" xmlns="http://www.w3.org/2000/svg" p-id="3991" width="128" height="128"><path d="M928.386 145.078c0.003-0.074 0.001-0.147 0.004-0.221a33.906 33.906 0 0 0-0.014-2.384 34.776 34.776 0 0 0-0.108-1.677c-0.011-0.12-0.016-0.241-0.028-0.361a33.874 33.874 0 0 0-0.258-1.953c-0.029-0.183-0.064-0.364-0.096-0.546a33.468 33.468 0 0 0-0.307-1.532c-0.036-0.161-0.07-0.323-0.109-0.483a33.81 33.81 0 0 0-1.216-3.973l-0.089-0.233a33.6 33.6 0 0 0-2.886-5.8l-0.041-0.065a33.544 33.544 0 0 0-5.43-6.604c-0.121-0.114-0.239-0.23-0.362-0.343a34.338 34.338 0 0 0-1.503-1.304l-0.056-0.043c-0.076-0.062-0.156-0.119-0.233-0.18a34.16 34.16 0 0 0-1.455-1.096c-0.062-0.044-0.119-0.093-0.181-0.136-0.081-0.057-0.167-0.106-0.248-0.162a34.346 34.346 0 0 0-1.493-0.974c-0.087-0.053-0.173-0.109-0.26-0.162a33.573 33.573 0 0 0-3.877-2.003l-0.127-0.055a33.643 33.643 0 0 0-6.222-2l-0.167-0.035a33.897 33.897 0 0 0-4.249-0.624c-0.069-0.006-0.138-0.008-0.206-0.013a34.323 34.323 0 0 0-2.287-0.094 33.559 33.559 0 0 0-1.85 0.033c-0.062 0.003-0.125 0.002-0.187 0.006-0.665 0.035-1.328 0.093-1.99 0.167-0.178 0.02-0.355 0.045-0.532 0.067-0.516 0.066-1.03 0.143-1.542 0.233-0.17 0.03-0.339 0.057-0.509 0.089-0.67 0.128-1.338 0.271-2 0.439l-0.037 0.01a33.436 33.436 0 0 0-2.298 0.68 33.629 33.629 0 0 0-4.163 1.695l-390.439 189.03c-0.156 0.076-0.312 0.153-0.467 0.231L114.202 491.285a33.802 33.802 0 0 0-0.998 59.866l218.189 119.101c16.388 8.946 36.923 2.912 45.869-13.475 8.945-16.387 2.912-36.924-13.475-45.868l-161.609-88.216 316.845-159.479L772.24 240.62 421.721 671.317a33.803 33.803 0 0 0-7.586 21.338v187.521c0 18.67 15.135 33.804 33.804 33.804s33.804-15.135 33.804-33.804V704.672l367.519-451.585-25.942 249.632-39.241 315.031-210.082-104.679c-16.71-8.328-37.007-1.53-45.332 15.18-8.327 16.711-1.53 37.007 15.18 45.332l252.803 125.965a33.8 33.8 0 0 0 48.621-26.078l45.183-362.737c0.028-0.228 0.055-0.456 0.078-0.684l37.699-362.737c0.003-0.032 0.003-0.063 0.007-0.094 0.071-0.712 0.124-1.426 0.15-2.14z" p-id="3992" fill="#ffffff"></path></svg>