<svg t="1620463254940" class="icon" viewBox="0 0 1024 1024" version="1.1" xmlns="http://www.w3.org/2000/svg" p-id="11599" width="128" height="128"><path d="M224 816c0-44.8-35.2-80-80-80s-80 35.2-80 80 35.2 80 80 80 80-35.2 80-80z m-112 0c0-17.6 14.4-32 32-32s32 14.4 32 32-14.4 32-32 32-32-14.4-32-32zM592 816c0-44.8-35.2-80-80-80s-80 35.2-80 80 35.2 80 80 80 80-35.2 80-80z m-112 0c0-17.6 14.4-32 32-32s32 14.4 32 32-14.4 32-32 32-32-14.4-32-32zM960 816c0-44.8-35.2-80-80-80s-80 35.2-80 80 35.2 80 80 80 80-35.2 80-80z m-112 0c0-17.6 14.4-32 32-32s32 14.4 32 32-14.4 32-32 32-32-14.4-32-32zM416 784v64H240v-64zM784 784v64H608v-64zM128 704h768V304H128v400z m704-336v272H192V368h640zM208 272v-48h608v48zM288 176V128h448v48z" p-id="11600" fill="#ffffff"></path><path d="M288 432h448v48H288zM288 528h448v48H288z" p-id="11601" fill="#ffffff"></path></svg>