<svg t="1620463310188" class="icon" viewBox="0 0 1024 1024" version="1.1" xmlns="http://www.w3.org/2000/svg" p-id="12601" width="128" height="128"><path d="M527.5 512.5c-35.346 0-64 28.654-64 64v64h-288c-35.346 0-64-28.654-64-64v-128c0-35.346 28.654-64 64-64h672c35.346 0 64 28.654 64 64v64h-384z m-256-32h-64c-17.673 0-32 14.327-32 32s14.327 32 32 32h64c17.673 0 32-14.327 32-32s-14.327-32-32-32z m576-160h-672c-35.346 0-64-28.654-64-64v-128c0-35.346 28.654-64 64-64h672c35.346 0 64 28.654 64 64v128c0 35.346-28.654 64-64 64z m-576-160h-64c-17.673 0-32 14.327-32 32s14.327 32 32 32h64c17.673 0 32-14.327 32-32s-14.327-32-32-32z m-96 544h288v256h-288c-35.346 0-64-28.654-64-64v-128c0-35.346 28.654-64 64-64z m32 160h64c17.673 0 32-14.327 32-32s-14.327-32-32-32h-64c-17.673 0-32 14.327-32 32s14.327 32 32 32z m352-160h96v-96c0-17.673 14.327-32 32-32s32 14.327 32 32v96h96c17.673 0 32 14.327 32 32s-14.327 32-32 32h-96v96c0 17.673-14.327 32-32 32s-32-14.327-32-32v-96h-96c-17.673 0-32-14.327-32-32s14.327-32 32-32z" p-id="12602" fill="#ffffff"></path></svg>