<svg t="1620462925392" class="icon" viewBox="0 0 1024 1024" version="1.1" xmlns="http://www.w3.org/2000/svg" p-id="6093" width="128" height="128"><path d="M978.944 263.68v425.472c0 12.8-3.072 25.088-9.728 35.84-6.656 11.264-15.872 19.968-27.136 26.112l-390.144 212.48c-10.24 6.144-21.504 8.704-33.792 8.704s-23.552-3.072-33.792-8.704l-390.144-212.48c-11.264-6.144-20.48-14.848-27.136-26.112-6.656-11.264-9.728-23.04-9.728-35.84V263.68c0-14.848 4.096-28.16 12.8-40.448s19.968-20.992 33.792-26.112l390.144-141.824c8.192-3.072 16.384-4.608 24.576-4.608s16.384 1.536 24.576 4.608l390.144 141.824c13.824 5.12 25.088 13.824 33.792 26.112 7.168 12.288 11.776 26.112 11.776 40.448z m-460.8 139.776l386.56-140.8-386.56-140.8-386.56 140.8 386.56 140.8z m35.328 479.232l354.304-193.536V336.896L553.472 465.92v416.768z" fill="#ffffff" p-id="6094"></path></svg>