<?xml version="1.0" standalone="no"?><!DOCTYPE svg PUBLIC "-//W3C//DTD SVG 1.1//EN" "http://www.w3.org/Graphics/SVG/1.1/DTD/svg11.dtd"><svg t="1620460893668" class="icon" viewBox="0 0 1024 1024" version="1.1" xmlns="http://www.w3.org/2000/svg" p-id="1073" width="128" height="128" xmlns:xlink="http://www.w3.org/1999/xlink"><defs><style type="text/css"></style></defs><path d="M402.884706 1023.360028h-215.6707a118.458891 118.458891 0 0 1-121.594756-116.218988L64.019319 116.263146A123.83466 123.83466 0 0 1 185.614075 0.044158h593.702397a118.394894 118.394894 0 0 1 121.594756 116.154991v296.307222a32.446601 32.446601 0 0 1-64.829204 0v-296.307222a55.805593 55.805593 0 0 0-56.701555-54.26966H185.614075a55.869591 55.869591 0 0 0-56.701554 54.26966l1.599931 790.813896a55.805593 55.805593 0 0 0 56.701554 54.205662h215.6707a30.526684 30.526684 0 0 1 32.4466 31.038662 31.99862 31.99862 0 0 1-32.4466 31.038661zM258.250943 235.042024a31.038661 31.038661 0 1 1 0-62.077323h447.980681a30.526684 30.526684 0 0 1 32.382603 31.038661 31.99862 31.99862 0 0 1-32.318606 31.038662H258.250943z m0 198.391444a31.038661 31.038661 0 1 1 0-62.077323h447.980681a31.038661 31.038661 0 1 1 0.063997 61.949329l-448.044678 0.063997z m0.063997 200.695345a31.038661 31.038661 0 1 1 0-62.013325h105.27546a30.526684 30.526684 0 0 1 32.382604 31.038661 31.99862 31.99862 0 0 1-32.382604 30.910667l-105.27546 0.063997zM838.385925 1024H595.70839l-121.594756-201.399315 121.594756-201.463312H838.385925l121.594756 201.463312L838.385925 1024z m-205.111155-62.013326h167.288786l83.70839-139.385989-83.70839-139.449986H633.594756l-83.70839 139.513984 83.388404 139.321991z m62.013326-103.611531a44.798068 44.798068 0 0 0 43.13414 0 40.510253 40.510253 0 0 0 0-71.612912 44.798068 44.798068 0 0 0-43.13414 0 40.702245 40.702245 0 0 0 0 71.612912z" p-id="1074" fill="#ffffff"></path></svg>