<svg t="1631254285629" class="icon" viewBox="0 0 1024 1024" version="1.1" xmlns="http://www.w3.org/2000/svg" p-id="4216" width="200" height="200"><path d="M662.8864 70.6048h-251.5968a23.77728 23.77728 0 0 0-23.78752 23.7568v167.1168a23.79776 23.79776 0 0 0 23.78752 23.8592h251.5968a23.87968 23.87968 0 0 0 23.8592-23.8592V94.3616a23.8592 23.8592 0 0 0-23.8592-23.7568z m-274.432 329.216h-23.41888a7.61856 7.61856 0 1 0 0 14.336h23.41888a7.61856 7.61856 0 1 0 0.03072-14.336z m64.09216 0h-23.33696a7.6288 7.6288 0 1 0 0 14.336h23.37792a7.6288 7.6288 0 1 0-0.01024-14.336z m64.1536 0h-23.40864a7.6288 7.6288 0 1 0 0 14.336h23.40864a7.6288 7.6288 0 1 0 0.03072-14.336z m64.13312 0h-23.3472a7.63904 7.63904 0 1 0 0 14.336h23.3472a7.6288 7.6288 0 1 0 0.03072-14.336z m64.1024 0h-23.3472a7.6288 7.6288 0 1 0 0 14.336h23.3472a7.6288 7.6288 0 1 0 0.03072-14.336z m64.2048 0h-23.4496a7.6288 7.6288 0 1 0 0 14.336h23.4496a7.59808 7.59808 0 1 0 0.03072-14.336z m-312.14592-8.3968h23.38816a7.58784 7.58784 0 1 0 0-14.2336h-23.38816a7.58784 7.58784 0 1 0 0.03072 14.2336z m64.11264 0h23.3984a7.59808 7.59808 0 1 0 0-14.2336h-23.40864a7.5776 7.5776 0 1 0 0.04096 14.2336z m64.1536 0h23.38816a7.59808 7.59808 0 1 0 0-14.2336h-23.38816a7.59808 7.59808 0 1 0 0.03072 14.2336z m64.17408 0h23.3472a7.59808 7.59808 0 1 0 0-14.2336h-23.3472a7.59808 7.59808 0 1 0 0.03072 14.2336z m64.1024 0h23.3472a7.59808 7.59808 0 1 0 0-14.2336h-23.3472a7.59808 7.59808 0 1 0 0.03072 14.2336z m-261.12 114.0736H140.83072a23.77728 23.77728 0 0 0-23.808 23.7568v167.1168a23.77728 23.77728 0 0 0 23.808 23.7568h251.60704a23.79776 23.79776 0 0 0 23.78752-23.7568v-167.1168a23.79776 23.79776 0 0 0-23.78752-23.7568z m105.984 318.976a22.65088 22.65088 0 0 0-22.67136-22.6304h-16.82432l-16.73216-34.0992h-53.248v-15.4624h34.816a22.86592 22.86592 0 0 0 24.064-21.2992v-236.3392a22.79424 22.79424 0 0 0-24.064-21.2992H109.50656a22.81472 22.81472 0 0 0-24.07424 21.2992v236.3392a22.8864 22.8864 0 0 0 24.07424 21.2992h34.816v15.4624h-53.248l-16.76288 34.0992H57.4976a22.66112 22.66112 0 0 0-22.67136 22.6304l-15.96416 35.2256a22.6816 22.6816 0 0 0 22.65088 22.7328h450.24256a22.66112 22.66112 0 0 0 22.66112-22.7328z m-388.9152-85.9136a9.53344 9.53344 0 0 1-10.47552-7.5776v-236.3392a9.5232 9.5232 0 0 1 10.47552-7.68h314.22464a9.5232 9.5232 0 0 1 10.47552 7.68v236.3392a9.54368 9.54368 0 0 1-10.47552 7.5776H109.50656z m324.1984 42.8032c4.51584 9.1136 16.75264 34.0992 16.75264 34.0992h25.2928a9.00096 9.00096 0 0 1 9.0624 9.0112v2.9696l15.36 33.792a8.78592 8.78592 0 0 1-8.41728 7.5776H41.50272a8.81664 8.81664 0 0 1-8.43776-7.5776c2.89792-6.3488 15.36-33.792 15.36-33.792v-2.9696a9.02144 9.02144 0 0 1 9.07264-9.0112h25.30304l16.77312-34.0992h58.27584v-21.1968h217.4976m-257.37216 74.4448H94.54592a7.61856 7.61856 0 1 0 0 14.336h23.42912a7.61856 7.61856 0 1 0 0.03072-14.336z m64.08192 0h-23.3472a7.6288 7.6288 0 1 0 0 14.336h23.3472a7.63904 7.63904 0 1 0 0.03072-14.336z m64.18432 0h-23.36768a7.6288 7.6288 0 1 0 0 14.336h23.3984a7.61856 7.61856 0 1 0 0-14.336z m64.11264 0h-23.38816a7.6288 7.6288 0 1 0 0 14.336h23.45984a7.6288 7.6288 0 1 0 0-14.336z m64.13312 0h-23.38816a7.6288 7.6288 0 1 0 0 14.336h23.38816a7.6288 7.6288 0 1 0 0.03072-14.336z m64.14336 0h-23.41888a7.61856 7.61856 0 1 0 0 14.336h23.41888a7.61856 7.61856 0 1 0 0.03072-14.336z m-312.10496-8.2944h23.3984a7.61856 7.61856 0 1 0 0-14.336h-23.3984a7.61856 7.61856 0 1 0 0.03072 14.336z m64.13312 0h23.3984a7.61856 7.61856 0 1 0 0-14.336h-23.3984a7.6288 7.6288 0 1 0 0.03072 14.336z m64.14336 0h23.36768a7.6288 7.6288 0 1 0 0-14.336h-23.36768a7.63904 7.63904 0 1 0 0.03072 14.336z m64.11264 0h23.3984a7.61856 7.61856 0 1 0 0-14.336h-23.3984a7.6288 7.6288 0 1 0 0.03072 14.336z m64.13312 0h23.3984a7.61856 7.61856 0 1 0 0-14.336h-23.31648a7.61856 7.61856 0 1 0 0 14.336z m499.968-218.0096h-251.5968a23.81824 23.81824 0 0 0-23.8592 23.8592v167.1168a23.79776 23.79776 0 0 0 23.8592 23.7568h251.5968a23.77728 23.77728 0 0 0 23.7568-23.7568v-167.1168a23.79776 23.79776 0 0 0-23.72608-23.8592z m105.984 319.0784a22.64064 22.64064 0 0 0-22.6304-22.6304h-16.896l-16.6912-34.0992h-53.248v-15.5648h34.816a22.84544 22.84544 0 0 0 24.064-21.1968v-236.4416a22.84544 22.84544 0 0 0-24.064-21.1968h-314.2656a22.77376 22.77376 0 0 0-24.064 21.1968v34.7136H535.2448v-184.6272h226.93888a22.64064 22.64064 0 0 0 22.6304-22.6304l-15.9744-35.2256a22.64064 22.64064 0 0 0-22.6304-22.6304h-16.7936l-16.7936-34.0992h-53.248v-15.5648h34.816a22.784 22.784 0 0 0 24.064-21.2992V59.7504a22.77376 22.77376 0 0 0-24.064-21.1968H379.99616a22.82496 22.82496 0 0 0-24.10496 21.1968v236.3392a22.8352 22.8352 0 0 0 24.10496 21.2992h34.7648v15.5648h-53.248l-16.75264 34.0992h-16.83456a22.6816 22.6816 0 0 0-22.6816 22.6304l-15.94368 35.2256a22.65088 22.65088 0 0 0 22.66112 22.6304h197.16096v184.6272h-60.66176v26.112h127.55968v175.616a22.77376 22.77376 0 0 0 24.064 21.1968h34.816v15.5648h-53.248l-16.7936 34.0992h-16.7936a22.64064 22.64064 0 0 0-22.66112 22.6304l-15.9744 35.2256a22.65088 22.65088 0 0 0 22.65088 22.6304h450.26304a22.64064 22.64064 0 0 0 22.6304-22.6304z m-609.03424-623.616a9.54368 9.54368 0 0 1-10.50624-7.68V59.7504a9.56416 9.56416 0 0 1 10.50624-7.5776h314.22464a9.5232 9.5232 0 0 1 10.4448 7.5776v236.3392a9.51296 9.51296 0 0 1-10.4448 7.68H379.99616z m-76.45184 122.6752c2.88768-6.4512 15.36-33.792 15.36-33.792v-2.9696a9.04192 9.04192 0 0 1 9.07264-9.0112h25.31328l16.75264-34.2016h58.368v-21.0944h217.51808v21.0944h58.2656c4.5056 9.216 16.7936 34.2016 16.7936 34.2016h25.2928a9.04192 9.04192 0 0 1 9.1136 9.0112v2.9696s12.3904 27.3408 15.2576 33.792a8.66304 8.66304 0 0 1-8.3968 7.4752H311.99232a8.72448 8.72448 0 0 1-8.448-7.4752z m296.57088 415.0272a9.64608 9.64608 0 0 1-10.5472-7.5776v-236.4416a9.64608 9.64608 0 0 1 10.5472-7.5776h314.2656a9.5232 9.5232 0 0 1 10.4448 7.5776v236.4416a9.5232 9.5232 0 0 1-10.4448 7.5776h-314.2656z m382.2592 130.1504H532.11136a8.67328 8.67328 0 0 1-8.41728-7.4752l15.36-33.792v-2.9696a9.1136 9.1136 0 0 1 9.07264-9.1136h25.2928l16.7936-33.9968h58.2656v-21.2992h217.4976v21.2992h58.368c4.5056 9.1136 16.6912 33.9968 16.6912 33.9968h25.3952a9.1136 9.1136 0 0 1 9.0112 9.1136v2.9696s12.4928 27.4432 15.36 33.792a8.66304 8.66304 0 0 1-8.42752 7.4752z m-373.76-34.0992h-23.4496a7.59808 7.59808 0 1 0 0 14.336h23.4496a7.6288 7.6288 0 1 0 0.03072-14.336z m64.1024 0h-23.3472a7.6288 7.6288 0 1 0 0 14.336h23.3472a7.6288 7.6288 0 1 0 0.03072-14.336z m64.2048 0h-23.4496a7.6288 7.6288 0 1 0 0 14.336h23.4496a7.59808 7.59808 0 1 0 0.03072-14.336z m64.1024 0h-23.4496a7.6288 7.6288 0 1 0 0 14.336h23.4496a7.6288 7.6288 0 1 0 0.03072-14.336z m64.1024 0h-23.4496a7.59808 7.59808 0 1 0 0 14.336h23.4496a7.6288 7.6288 0 1 0 0.03072-14.336z m64.1024 0h-23.3472a7.6288 7.6288 0 1 0 0 14.336h23.3472a7.6288 7.6288 0 1 0 0.03072-14.336z m-312.1152-8.3968h23.4496a7.59808 7.59808 0 1 0 0-14.2336h-23.4496a7.56736 7.56736 0 1 0 0.03072 14.2336z m64.2048 0h23.3472a7.59808 7.59808 0 1 0 0-14.2336h-23.3472a7.59808 7.59808 0 1 0 0.03072 14.2336z m64.1024 0h23.4496a7.56736 7.56736 0 1 0 0-14.2336h-23.4496a7.59808 7.59808 0 1 0 0.03072 14.2336z m64.1024 0h23.4496a7.59808 7.59808 0 1 0 0-14.2336h-23.4496a7.59808 7.59808 0 1 0 0.03072 14.2336z m64.2048 0h23.3472a7.59808 7.59808 0 1 0 0-14.2336h-23.3472a7.59808 7.59808 0 1 0 0.03072 14.2336z" p-id="4217"></path></svg>