<?xml version="1.0" standalone="no"?><!DOCTYPE svg PUBLIC "-//W3C//DTD SVG 1.1//EN" "http://www.w3.org/Graphics/SVG/1.1/DTD/svg11.dtd"><svg t="1662538511045" class="icon" viewBox="0 0 1024 1024" version="1.1" xmlns="http://www.w3.org/2000/svg" p-id="30725" xmlns:xlink="http://www.w3.org/1999/xlink" width="200" height="200"><path d="M864 384H160a96 96 0 0 1-96-96V96a96 96 0 0 1 96-96h704a96 96 0 0 1 96 96v192a96 96 0 0 1-96 96zM160 64a32 32 0 0 0-32 32v192a32 32 0 0 0 32 32h704a32 32 0 0 0 32-32V96a32 32 0 0 0-32-32z" fill="#0F55FA" p-id="30726"></path><path d="M864 704H160a96 96 0 0 1-96-96v-192a96 96 0 0 1 96-96h704a96 96 0 0 1 96 96v192a96 96 0 0 1-96 96zM160 384a32 32 0 0 0-32 32v192a32 32 0 0 0 32 32h704a32 32 0 0 0 32-32v-192a32 32 0 0 0-32-32z" fill="#0F55FA" p-id="30727"></path><path d="M864 1024H160a96 96 0 0 1-96-96v-192a96 96 0 0 1 96-96h704a96 96 0 0 1 96 96v192a96 96 0 0 1-96 96zM160 704a32 32 0 0 0-32 32v192a32 32 0 0 0 32 32h704a32 32 0 0 0 32-32v-192a32 32 0 0 0-32-32z" fill="#0F55FA" p-id="30728"></path><path d="M224 192m-32 0a32 32 0 1 0 64 0 32 32 0 1 0-64 0Z" fill="#0F55FA" p-id="30729"></path><path d="M224 512m-32 0a32 32 0 1 0 64 0 32 32 0 1 0-64 0Z" fill="#0F55FA" p-id="30730"></path><path d="M224 832m-32 0a32 32 0 1 0 64 0 32 32 0 1 0-64 0Z" fill="#0F55FA" p-id="30731"></path></svg>