<?xml version="1.0" standalone="no"?><!DOCTYPE svg PUBLIC "-//W3C//DTD SVG 1.1//EN" "http://www.w3.org/Graphics/SVG/1.1/DTD/svg11.dtd"><svg t="1662435330007" class="icon" viewBox="0 0 1024 1024" version="1.1" xmlns="http://www.w3.org/2000/svg" p-id="2379" xmlns:xlink="http://www.w3.org/1999/xlink" width="200" height="200"><path d="M512 170.666667C324.266667 170.666667 170.666667 324.266667 170.666667 512s153.6 341.333333 341.333333 341.333333 341.333333-153.6 341.333333-341.333333S699.733333 170.666667 512 170.666667z m0 640c-164.266667 0-298.666667-134.4-298.666667-298.666667s134.4-298.666667 298.666667-298.666667 298.666667 134.4 298.666667 298.666667-134.4 298.666667-298.666667 298.666667z" fill="#17abe3" p-id="2380"></path><path d="M512 448c-12.8 0-21.333333 8.533333-21.333333 21.333333v213.333334c0 10.666667 8.533333 21.333333 21.333333 21.333333s21.333333-8.533333 21.333333-21.333333V469.333333c0-10.666667-8.533333-21.333333-21.333333-21.333333zM512 320c-12.8 0-21.333333 10.666667-21.333333 21.333333v42.666667c0 12.8 8.533333 21.333333 21.333333 21.333333s21.333333-10.666667 21.333333-21.333333v-42.666667c0-12.8-8.533333-21.333333-21.333333-21.333333z" fill="#17abe3" p-id="2381"></path></svg>