<svg t="1620619621241" class="icon" viewBox="0 0 1024 1024" version="1.1" xmlns="http://www.w3.org/2000/svg" p-id="2314" width="120" height="120"><path d="M975.2 43H112.1c-19.3 0-35 15.7-35 35v641.6c0 19.3 15.7 35 35 35h396.6v117.1H253.2c-19.3 0-35 15.7-35 35s15.7 35 35 35h559.7c19.3 0 35-15.7 35-35s-15.7-35-35-35H578.6V754.6h396.6c19.3 0 35-15.7 35-35V78c0-19.3-15.7-35-35-35z m-35 641.6H147.1V113h793.1v571.6z" p-id="2315" fill="#ffffff"></path><path d="M264.4 606.5c33.7 16.3 66.1 17 69.7 17.1h401.7c3.6 0 34.1-0.5 67.1-15.5 20.6-9.4 38-22.5 51.6-39 16.9-20.5 27.6-45.6 31.8-74.7 0.1-0.9 0.2-1.9 0.3-2.8 1.9-31.2-3.5-59.5-16.3-84.4-10.3-20.1-25.2-37.5-44.3-51.7-13.3-9.9-26.7-16.8-37.9-21.6-1.2-18.3-4.8-43.4-14.2-69.4-10.9-30.1-27.5-55.3-49.1-74.8-27.1-24.4-61.6-39.4-102.4-44.5-0.3 0-0.5-0.1-0.8-0.1-79.7-8.1-130.5 27.4-159.1 58.6-10.2 11.2-18.3 22.5-24.5 32.7-21.5-7-54.5-10.6-91.9 11.1-0.3 0.2-0.6 0.3-0.9 0.5-27.1 16.7-45.1 42-52.1 73.2-0.9 4.1-1.6 8-2.1 11.7-10.9 4.4-23.9 10.9-36.9 20.1C224 374.2 188 414 188 483.1v0.8c1.3 55.9 28.4 99.4 76.4 122.6z m28.4-195.1c18.5-13.6 38-18.2 39.7-18.6 18.7-3.4 30.7-21 27.8-39.7 0-0.3-3.8-29.4 21.4-45.3 11.6-6.6 22.4-8.4 33.1-5.3 7.9 2.3 13.4 6.5 14.6 7.5 8.6 8.7 20.5 12.1 32.4 9.3 12-2.8 21.1-12 24.8-23.8 0.6-1.7 9.1-25 29.1-46.1 25.5-26.9 58.7-38.6 98.5-34.6 46.8 5.9 77.3 29.4 93.4 71.8 13 34.3 11.2 68.4 11.1 70.1-1.4 17.8 10.3 33.4 27.8 36.8 1.7 0.4 21.4 5.3 39.5 19.3 22.5 17.5 32.6 41.4 31 72.9-4.3 27.6-17.8 46.5-41.1 57.8-20 9.7-39.9 10.1-40.1 10.1h0.3H334.9c-2-0.1-22.4-1.1-41.7-10.9-23.3-11.9-34.4-30.9-35.2-60 0.1-30.9 11.5-54.2 34.8-71.3z" p-id="2316" fill="#ffffff"></path></svg>