<?xml version="1.0" standalone="no"?><!DOCTYPE svg PUBLIC "-//W3C//DTD SVG 1.1//EN" "http://www.w3.org/Graphics/SVG/1.1/DTD/svg11.dtd"><svg t="1653989982460" class="icon" viewBox="0 0 1024 1024" version="1.1" xmlns="http://www.w3.org/2000/svg" p-id="1719" xmlns:xlink="http://www.w3.org/1999/xlink" width="200" height="200"><defs><style type="text/css">@font-face { font-family: feedback-iconfont; src: url("//at.alicdn.com/t/font_1031158_u69w8yhxdu.woff2?t=1630033759944") format("woff2"), url("//at.alicdn.com/t/font_1031158_u69w8yhxdu.woff?t=1630033759944") format("woff"), url("//at.alicdn.com/t/font_1031158_u69w8yhxdu.ttf?t=1630033759944") format("truetype"); }
</style></defs><path d="M584.045405 950.545413H109.540505a36.342878 36.342878 0 0 1-36.342878-36.342878V109.540505a36.342878 36.342878 0 0 1 36.342878-36.342878h621.923897a36.342878 36.342878 0 0 1 36.342878 36.342878 36.854749 36.854749 0 1 0 73.197628 0A109.540505 109.540505 0 0 0 731.464402 0H109.540505A109.540505 109.540505 0 0 0 0 109.540505v804.66203A109.540505 109.540505 0 0 0 109.540505 1023.74304h474.5049a36.854749 36.854749 0 1 0 0-73.197627z" fill="#cdcdcd" p-id="1720"></path><path d="M511.87152 255.93576a36.342878 36.342878 0 0 0-36.342878-36.342878H182.738133a36.342878 36.342878 0 0 0 0 72.685756h292.790509A36.342878 36.342878 0 0 0 511.87152 255.93576z m-36.342878 219.592882a36.854749 36.854749 0 0 0-36.854749-36.854749h-255.93576a36.854749 36.854749 0 0 0 0 73.197627h255.93576a36.342878 36.342878 0 0 0 36.854749-36.342878z m-292.790509 219.081011a36.854749 36.854749 0 0 0 0 73.197627h146.395255a36.854749 36.854749 0 0 0 0-73.197627z m731.464402-54.770253h-75.756985a2405.796145 2405.796145 0 0 0 75.756985-237.508385 183.250004 183.250004 0 0 0-365.988137 0 1701.972805 1701.972805 0 0 0 75.245114 237.508385h-75.245114a109.540505 109.540505 0 0 0-109.540505 109.540506v36.854749a109.540505 109.540505 0 0 0 109.540505 109.540505h365.988137A109.540505 109.540505 0 0 0 1023.74304 786.234655v-36.854749a109.540505 109.540505 0 0 0-109.540505-109.540506z m-253.376402-112.611734c-22.010475-63.472069-39.414107-119.777936-39.414107-124.896651a110.052377 110.052377 0 1 1 219.592882 0c0 7.166201-59.888968 180.690647-80.363829 237.508385h-58.353353c-9.213687-23.034218-25.593576-67.567041-41.461593-112.611734z m289.71928 259.006989a36.342878 36.342878 0 0 1-36.342878 36.342878h-365.988137a36.342878 36.342878 0 0 1-36.342878-36.342878v-36.854749a36.342878 36.342878 0 0 1 36.342878-36.342878h365.988137a36.342878 36.342878 0 0 1 36.342878 36.342878z" fill="#cdcdcd" p-id="1721"></path></svg>