<?xml version="1.0" standalone="no"?><!DOCTYPE svg PUBLIC "-//W3C//DTD SVG 1.1//EN" "http://www.w3.org/Graphics/SVG/1.1/DTD/svg11.dtd"><svg t="1640845921262" class="icon" viewBox="0 0 1024 1024" version="1.1" xmlns="http://www.w3.org/2000/svg" p-id="1671" xmlns:xlink="http://www.w3.org/1999/xlink" width="200" height="200"><defs><style type="text/css"></style></defs><path d="M576 149.333333h-128c-23.466667 0-42.666667 19.2-42.666667 42.666667s17.066667 40.533333 40.533334 42.666667H576c23.466667 0 42.666667-19.2 42.666667-42.666667s-19.2-42.666667-42.666667-42.666667z m85.333333 277.333334c23.466667 0 42.666667 19.2 42.666667 42.666666s-19.2 42.666667-42.666667 42.666667H362.666667c-23.466667 0-42.666667-19.2-42.666667-42.666667s19.2-42.666667 42.666667-42.666666h298.666666z m0 170.666666c23.466667 0 42.666667 19.2 42.666667 42.666667s-19.2 42.666667-42.666667 42.666667H362.666667c-23.466667 0-42.666667-19.2-42.666667-42.666667s19.2-42.666667 42.666667-42.666667h298.666666z m-85.333333-277.333333h-128c-55.466667 0-102.4-36.266667-121.6-85.333333H256c-23.466667 0-40.533333 17.066667-42.666667 40.533333V832c0 23.466667 17.066667 40.533333 40.533334 42.666667H768c23.466667 0 40.533333-17.066667 42.666667-40.533334V277.333333c0-23.466667-19.2-42.666667-42.666667-42.666666h-70.4c-19.2 49.066667-66.133333 85.333333-121.6 85.333333z m0-256c55.466667 0 102.4 36.266667 121.6 85.333333H768c70.4 0 128 57.6 128 128v554.666667c0 70.4-57.6 128-128 128H256c-70.4 0-128-57.6-128-128V277.333333c0-70.4 57.6-128 128-128h70.4c17.066667-49.066667 64-85.333333 121.6-85.333333h128z" p-id="1672"></path></svg>