<?xml version="1.0" standalone="no"?><!DOCTYPE svg PUBLIC "-//W3C//DTD SVG 1.1//EN" "http://www.w3.org/Graphics/SVG/1.1/DTD/svg11.dtd"><svg t="1655976449852" class="icon" viewBox="0 0 1024 1024" version="1.1" xmlns="http://www.w3.org/2000/svg" p-id="1311" xmlns:xlink="http://www.w3.org/1999/xlink" width="200" height="200"><defs><style type="text/css">@font-face { font-family: feedback-iconfont; src: url("//at.alicdn.com/t/font_1031158_u69w8yhxdu.woff2?t=1630033759944") format("woff2"), url("//at.alicdn.com/t/font_1031158_u69w8yhxdu.woff?t=1630033759944") format("woff"), url("//at.alicdn.com/t/font_1031158_u69w8yhxdu.ttf?t=1630033759944") format("truetype"); }
</style></defs><path d="M540.444444 227.555556L324.266667 546.133333h375.466666l-216.177777 267.377778z" p-id="1312" fill="#bfbfbf"></path><path d="M512 125.155556l341.333333 193.422222v386.844444l-341.333333 193.422222-341.333333-193.422222V318.577778l341.333333-193.422222M512 0c-11.377778 0-17.066667 0-28.444444 5.688889l-398.222223 227.555555c-17.066667 11.377778-28.444444 28.444444-28.444444 51.2v455.111112c0 22.755556 11.377778 39.822222 28.444444 51.2l398.222223 227.555555c11.377778 0 17.066667 5.688889 28.444444 5.688889s17.066667 0 28.444444-5.688889l398.222223-227.555555c17.066667-11.377778 28.444444-28.444444 28.444444-51.2V284.444444c0-22.755556-11.377778-39.822222-28.444444-51.2l-398.222223-227.555555C529.066667 0 523.377778 0 512 0z" p-id="1313" fill="#bfbfbf"></path></svg>